<?xml version="1.0" standalone="no"?>
<!DOCTYPE svg PUBLIC "-//W3C//DTD SVG 20010904//EN"
 "http://www.w3.org/TR/2001/REC-SVG-20010904/DTD/svg10.dtd">
<svg version="1.0" xmlns="http://www.w3.org/2000/svg"
 width="64.000000pt" height="64.000000pt" viewBox="0 0 64.000000 64.000000"
 preserveAspectRatio="xMidYMid meet">
<g transform="translate(0.000000,64.000000) scale(0.100000,-0.100000)"
fill="#f0f8ff" stroke="none">
<path d="M195 559 c-60 -34 -118 -68 -127 -77 -16 -13 -18 -35 -18 -167 0
-132 2 -154 18 -167 29 -27 238 -138 258 -138 20 0 215 108 246 137 16 14 18
35 18 168 0 133 -2 154 -18 168 -33 30 -226 137 -247 137 -11 0 -69 -28 -130
-61z m121 19 c-3 -13 -6 -47 -6 -76 l0 -53 -47 5 c-27 3 -79 8 -117 12 l-68 6
113 63 c63 35 118 64 123 65 4 0 6 -10 2 -22z m140 -44 c63 -37 114 -67 112
-69 -2 -1 -56 -5 -120 -8 l-118 -5 0 74 c0 41 2 74 5 74 3 0 58 -30 121 -66z
m-213 -94 c67 0 70 12 -27 -127 l-64 -92 -31 100 c-18 55 -35 108 -38 116 -6
14 1 15 48 10 30 -4 80 -7 112 -7z m314 -2 c-2 -7 -19 -58 -38 -113 -37 -109
-40 -115 -46 -99 -2 5 -30 52 -63 103 -33 51 -60 96 -60 100 0 4 42 8 92 10
51 1 95 4 97 7 10 9 23 3 18 -8z m-458 -109 c16 -52 32 -101 36 -110 4 -12 -3
-20 -25 -29 -17 -7 -32 -11 -34 -9 -4 4 -13 249 -9 245 2 -1 16 -45 32 -97z
m284 8 c32 -51 65 -102 74 -114 l15 -23 -156 0 -156 0 77 115 c43 63 80 114
83 114 3 0 31 -41 63 -92z m189 -39 c-2 -68 -5 -124 -6 -125 -6 -7 -66 23 -66
32 0 6 14 51 30 101 37 109 39 114 42 114 2 0 1 -55 0 -122z m-347 -189 l70
-72 -60 34 c-33 18 -82 46 -110 61 -49 26 -49 27 -25 37 44 17 54 12 125 -60z
m180 9 c-32 -35 -63 -69 -70 -75 -8 -10 -28 4 -85 62 l-74 75 143 0 144 0 -58
-62z m132 46 c23 -6 19 -10 -44 -46 -37 -22 -84 -49 -103 -61 -31 -19 -27 -13
29 51 41 47 69 71 78 67 8 -3 26 -8 40 -11z"/>
</g>
</svg>
